/* XPM */
static char * maximize_toggled_prelight_xpm[] = {
"24 26 4 1",
" 	c None",
".	c #d4d0c8",
"+	c #22AA99 s active_color_1",
"@	c #22AA99",
"@@@@@@@@@@@@@@@@@@@@@@@@",
"........................",
"........................",
"........................",
"........................",
"........................",
"........................",
"........................",
"........................",
"........++++++++........",
"........++++++++........",
"........++....++........",
"........++....++........",
"........++....++........",
"........++....++........",
"........++++++++........",
"........++++++++........",
"........................",
"........................",
"........................",
"........................",
"........................",
"........................",
"........................",
"........................",
"........................"};
